<?xml version="1.0" standalone="no"?>
<!DOCTYPE svg PUBLIC "-//W3C//DTD SVG 20010904//EN"
 "http://www.w3.org/TR/2001/REC-SVG-20010904/DTD/svg10.dtd">
<svg version="1.0" xmlns="http://www.w3.org/2000/svg"
 width="300.000000pt" height="300.000000pt" viewBox="0 0 300.000000 300.000000"
 preserveAspectRatio="xMidYMid meet">
<metadata>
Created by potrace 1.14, written by Peter Selinger 2001-2017
</metadata>
<g transform="translate(0.000000,300.000000) scale(0.100000,-0.100000)"
fill="#000000" stroke="none">
<path d="M2940 2991 c0 -18 18 -21 30 -6 10 13 9 15 -9 15 -11 0 -21 -4 -21
-9z"/>
<path d="M2107 2744 c-3 -3 -1 -14 5 -24 7 -10 8 -25 3 -36 -7 -17 -9 -16 -18
9 -7 18 -16 26 -25 22 -8 -3 -23 2 -33 11 -15 14 -19 14 -19 3 0 -8 7 -24 15
-35 8 -12 12 -24 8 -27 -3 -4 3 -10 13 -14 10 -4 25 -13 32 -20 7 -7 24 -13
38 -13 15 0 24 -6 24 -15 0 -8 8 -23 18 -33 10 -10 16 -24 14 -30 -2 -7 3 -12
12 -12 10 0 13 -6 9 -16 -5 -13 -2 -15 15 -9 19 5 22 2 22 -22 0 -16 -5 -34
-11 -40 -8 -8 -8 -13 0 -17 6 -4 11 -16 11 -27 0 -10 6 -19 14 -19 19 0 28
-148 11 -170 -15 -18 -9 -40 11 -40 8 0 14 -7 14 -15 0 -8 5 -15 11 -15 6 0 8
-9 4 -21 -4 -13 0 -27 11 -40 11 -12 17 -35 17 -64 0 -26 5 -45 11 -45 7 0 11
-22 11 -53 0 -41 3 -52 16 -51 13 1 16 -10 17 -57 1 -44 -3 -59 -13 -59 -7 0
-15 6 -18 13 -3 9 -7 9 -20 -2 -14 -11 -17 -11 -17 0 0 8 -6 5 -14 -7 -14 -18
-15 -18 -21 -1 -9 21 -31 22 -39 2 -3 -8 -10 -15 -16 -15 -5 0 -10 7 -10 15 0
18 -14 19 -42 4 -14 -8 -23 -8 -31 0 -7 7 -14 5 -24 -7 -12 -16 -14 -16 -24 1
-10 18 -11 18 -24 1 -11 -15 -17 -16 -38 -7 -14 7 -34 9 -46 6 -12 -3 -27 0
-35 6 -11 10 -16 8 -21 -8 -6 -21 -15 -25 -47 -22 -9 1 -30 -5 -47 -13 -16 -9
-44 -16 -61 -16 -27 0 -30 -2 -21 -19 8 -15 7 -20 -5 -25 -9 -3 -20 -4 -24 -1
-13 8 -24 -15 -13 -26 5 -5 25 -11 44 -14 63 -7 74 -12 77 -34 4 -27 26 -22
30 7 4 25 42 31 42 7 0 -14 40 -21 94 -16 10 0 24 -4 31 -9 9 -8 15 -8 20 0 9
14 46 2 62 -19 10 -14 14 -13 39 9 l27 25 -7 -27 c-6 -27 6 -39 19 -18 10 15
35 12 35 -5 0 -8 -4 -15 -9 -15 -5 0 -15 -15 -22 -32 -7 -18 -35 -55 -61 -81
-39 -40 -52 -47 -70 -41 -13 4 -32 8 -44 8 -11 1 -28 7 -37 15 -19 15 -22 8
-7 -19 6 -11 16 -17 24 -14 7 3 19 -2 26 -11 10 -12 10 -15 -3 -15 -9 0 -27 4
-41 9 -18 7 -28 6 -36 -4 -9 -11 -18 -11 -43 -3 -23 9 -32 8 -35 0 -5 -17 -32
-15 -32 3 0 19 -19 19 -43 0 -24 -18 -53 -9 -36 11 9 11 8 14 -4 14 -8 0 -20
-7 -27 -15 -7 -8 -19 -15 -26 -15 -8 0 -14 -4 -14 -9 0 -18 23 -25 72 -22 36
2 48 -1 48 -12 0 -23 52 -19 72 6 14 18 19 19 32 8 20 -17 10 -34 -15 -28 -14
4 -19 0 -19 -15 0 -16 -5 -19 -22 -14 -13 3 -33 6 -45 6 -13 0 -23 6 -23 13 0
9 -21 12 -75 11 -41 0 -78 -4 -82 -7 -3 -4 -17 0 -30 9 -20 12 -27 13 -39 3
-12 -10 -18 -8 -30 9 -11 17 -25 22 -57 22 -49 0 -95 -26 -77 -44 8 -8 13 -8
18 1 11 17 77 11 77 -7 0 -9 -7 -14 -17 -12 -22 4 -23 -6 -3 -28 14 -15 14
-19 1 -29 -11 -9 -20 -10 -36 -1 -11 6 -25 8 -31 4 -6 -3 -42 -8 -80 -9 -49
-2 -75 -8 -89 -20 -20 -18 -40 -13 -40 11 0 8 -7 14 -15 14 -8 0 -25 6 -36 13
-18 11 -24 8 -49 -21 -15 -19 -30 -29 -34 -24 -3 5 -18 12 -34 15 -16 3 -34
17 -42 31 -9 19 -19 25 -32 20 -14 -4 -18 0 -18 18 -1 22 -1 22 -15 5 -13 -18
-14 -18 -25 2 -6 12 -21 21 -34 21 -20 0 -25 6 -31 40 -6 34 -9 39 -21 29 -11
-9 -14 -8 -14 5 0 13 -5 16 -19 11 -11 -3 -22 -1 -26 5 -4 7 2 14 14 17 11 3
18 9 15 14 -3 5 -17 6 -31 3 -21 -6 -24 -3 -21 12 2 10 -5 28 -15 39 -46 51
-73 75 -84 75 -7 0 -13 7 -13 15 0 8 5 15 10 15 6 0 10 7 10 16 0 23 -23 12
-38 -19 -12 -24 -10 -28 23 -61 20 -20 38 -36 41 -36 13 0 43 -47 44 -67 0
-14 6 -23 15 -23 8 0 15 -9 15 -20 0 -24 20 -70 31 -70 4 0 11 5 14 10 8 13
35 -6 35 -25 0 -7 8 -12 18 -11 12 1 18 -8 20 -29 2 -16 14 -39 27 -50 21 -17
23 -22 11 -37 -20 -27 -54 -12 -62 27 -5 30 -8 32 -47 33 -23 0 -53 1 -67 3
-19 3 -27 -3 -38 -24 -10 -21 -17 -26 -25 -18 -6 6 -21 11 -33 11 -13 0 -26 5
-29 11 -5 7 -14 4 -27 -7 -16 -16 -21 -16 -28 -4 -6 8 -10 25 -10 37 0 16 -5
20 -21 16 -16 -5 -19 -11 -14 -33 5 -24 3 -27 -25 -27 -36 0 -39 15 -8 42 15
12 18 20 10 23 -7 2 -19 -1 -26 -8 -10 -8 -16 -8 -21 0 -4 6 -15 8 -25 5 -13
-4 -19 1 -23 25 -4 17 -13 30 -21 30 -18 0 -24 17 -18 48 3 17 10 22 23 19 14
-4 19 0 19 15 0 16 -3 18 -14 9 -11 -9 -15 -5 -20 20 -10 53 -8 66 8 43 12
-15 17 -16 27 -7 10 10 9 15 -1 27 -15 19 -6 46 15 46 8 0 15 7 15 15 0 8 7
15 15 15 13 0 14 4 5 20 -9 17 -8 20 7 20 10 0 28 11 41 25 l23 24 -20 13
c-23 14 -29 43 -8 35 8 -3 20 -1 27 3 11 7 10 13 -4 35 -17 25 -16 26 12 51
21 19 28 32 24 50 -2 13 -10 24 -17 24 -8 0 -21 3 -31 7 -14 5 -16 2 -12 -21
3 -14 1 -29 -3 -32 -5 -3 -9 -14 -9 -25 0 -11 -7 -22 -15 -25 -10 -4 -14 -17
-12 -37 1 -22 -2 -32 -13 -32 -11 0 -15 -10 -13 -34 1 -21 -6 -40 -18 -52 -10
-10 -19 -26 -19 -34 0 -8 -4 -15 -10 -15 -5 0 -10 -8 -10 -19 0 -10 -9 -21
-20 -24 -11 -3 -24 -17 -30 -32 -8 -20 -15 -26 -30 -22 -23 6 -56 -16 -47 -31
4 -5 16 -8 27 -5 11 3 20 0 20 -6 0 -10 -14 -15 -32 -12 -8 1 -12 -22 -9 -46
3 -21 -17 -24 -55 -8 -20 8 -44 15 -54 15 -10 0 -20 8 -23 19 -3 14 -16 20
-46 23 -23 2 -44 2 -47 -1 -2 -2 -4 -312 -4 -688 l0 -683 461 0 c315 0 467 3
481 11 15 8 19 8 14 0 -5 -8 275 -11 1018 -11 l1026 0 0 904 c0 986 2 947 -55
891 l-24 -25 -12 22 c-11 20 -13 20 -24 5 -18 -25 -115 -13 -115 14 0 5 8 9
18 7 13 -2 17 4 16 30 -1 21 3 32 12 32 8 0 14 5 14 10 0 6 6 10 14 10 18 0
25 33 21 103 -2 31 1 57 6 57 5 0 9 5 9 10 0 6 -9 10 -19 10 -28 0 -37 21 -17
36 17 12 17 14 0 38 -9 15 -14 29 -11 33 4 3 2 15 -4 25 -8 14 -8 23 0 31 16
16 13 27 -6 27 -28 0 -28 77 -1 86 11 3 22 3 26 0 3 -3 16 3 28 15 14 13 24
17 29 10 9 -16 25 -13 25 4 0 16 -1 17 -47 21 -25 2 -34 -2 -39 -18 -5 -18 -7
-18 -23 -3 -16 14 -20 14 -30 1 -7 -8 -19 -12 -27 -9 -11 4 -14 -4 -14 -36 0
-30 4 -41 15 -41 18 0 20 -16 3 -23 -10 -4 -10 -7 0 -15 9 -6 10 -16 3 -35 -8
-19 -6 -28 4 -37 11 -9 12 -17 5 -30 -14 -27 -12 -50 4 -44 9 3 15 -6 20 -28
4 -19 2 -34 -4 -36 -15 -5 -12 -23 5 -36 12 -9 12 -17 2 -49 -7 -21 -17 -35
-24 -33 -16 7 -24 -5 -13 -19 12 -14 2 -48 -11 -39 -5 3 -12 -1 -15 -10 -3 -8
-12 -12 -21 -9 -14 5 -15 0 -10 -35 6 -45 -5 -53 -44 -32 -15 8 -19 7 -19 -3
0 -22 -49 -51 -64 -38 -7 6 -34 12 -60 13 -43 3 -48 6 -53 30 -3 15 -13 30
-23 33 -14 4 -17 16 -15 60 1 30 -1 55 -5 55 -9 0 -23 40 -20 58 1 8 -6 20
-16 26 -13 10 -16 22 -11 49 4 25 1 39 -9 48 -8 6 -14 21 -13 33 5 60 0 76
-27 76 -16 0 -23 4 -18 11 3 6 8 48 11 94 3 71 1 88 -16 116 -24 39 -27 75 -7
86 18 10 60 109 52 122 -4 5 -1 13 5 17 8 5 7 9 -2 15 -8 4 -20 3 -28 -4 -12
-10 -13 -6 -8 26 4 28 2 37 -9 37 -9 0 -14 -11 -14 -35 0 -24 -5 -35 -14 -35
-18 0 -33 -43 -17 -48 27 -9 9 -30 -25 -30 -36 0 -36 0 -29 35 4 23 3 33 -4
29 -13 -9 -63 23 -58 37 2 6 -5 19 -15 29 -20 20 -22 21 -31 12z m247 -1209
c3 -9 0 -15 -8 -15 -8 0 -17 -11 -20 -24 -3 -14 -15 -28 -27 -31 -25 -8 -25
-7 -34 28 -6 23 -4 27 14 27 12 0 21 6 21 15 0 9 9 15 24 15 13 0 26 -7 30
-15z m-99 -95 c0 -22 -29 -18 -33 3 -3 14 1 18 15 15 10 -2 18 -10 18 -18z
m-45 -25 c0 -8 -6 -15 -14 -15 -8 0 -16 7 -20 15 -4 10 1 15 14 15 11 0 20 -7
20 -15z m-2130 -75 c0 -5 -5 -12 -11 -16 -14 -8 -33 11 -25 25 7 11 36 4 36
-9z m2150 -10 c18 -11 13 -16 -23 -25 -20 -6 -27 -4 -27 8 0 13 12 24 30 26 3
0 12 -3 20 -9z m-226 -25 c26 -6 28 -8 14 -22 -16 -16 -72 -11 -83 8 -10 14 5
30 23 25 10 -2 30 -7 46 -11z m71 -6 c10 -15 -1 -23 -20 -15 -9 3 -13 10 -10
16 8 13 22 13 30 -1z m-1858 -36 c3 -7 -4 -9 -16 -6 -12 3 -18 9 -15 15 7 11
26 6 31 -9z m1400 -21 c25 5 27 -19 2 -27 -41 -13 -80 -12 -89 4 -11 20 28 41
53 29 9 -5 25 -8 34 -6z m-1207 -81 c0 -12 -29 -23 -41 -15 -5 3 -7 10 -4 15
8 12 45 12 45 0z m930 -31 c0 -5 32 -7 71 -6 71 2 91 -7 74 -34 -5 -9 -10 -9
-18 -1 -14 14 -77 14 -77 1 0 -5 -9 -10 -19 -10 -23 0 -114 44 -106 51 8 9 75
7 75 -1z m-305 -965 c6 -1 15 2 21 7 7 5 16 2 24 -7 11 -13 15 -13 42 1 35 18
34 19 43 -23 4 -21 3 -33 -4 -33 -6 0 -11 7 -11 15 0 16 -12 20 -24 8 -4 -5
-13 -8 -18 -8 -6 0 -13 -6 -15 -12 -3 -7 0 -13 6 -13 6 0 11 -4 11 -10 0 -5
-7 -10 -15 -10 -8 0 -15 7 -15 15 0 18 -5 18 -30 5 -13 -7 -21 -7 -25 0 -3 6
-17 7 -31 4 -18 -5 -24 -2 -24 9 0 9 -8 20 -17 26 -15 8 -12 11 17 24 19 8 40
12 45 8 6 -3 15 -6 20 -6z m-153 -15 c7 -11 22 -20 34 -20 12 0 27 -6 33 -14
9 -11 6 -15 -16 -19 -35 -7 -83 2 -83 15 0 5 -7 16 -15 25 -8 8 -13 19 -10 24
11 16 44 10 57 -11z m356 -23 c7 3 12 -4 12 -17 0 -14 -5 -20 -12 -16 -7 3
-21 9 -30 12 -20 7 -21 13 -11 39 5 16 7 15 17 -2 6 -11 17 -18 24 -16z m-80
-39 c2 -12 -2 -15 -17 -11 -12 3 -21 12 -21 20 0 20 34 12 38 -9z m-398 3 c0
-14 -18 -23 -30 -16 -6 4 -8 11 -5 16 8 12 35 12 35 0z"/>
<path d="M2890 2356 c0 -9 5 -16 10 -16 6 0 10 4 10 9 0 6 -4 13 -10 16 -5 3
-10 -1 -10 -9z"/>
<path d="M530 1655 c0 -8 7 -15 15 -15 9 0 15 -9 15 -24 0 -30 25 -54 34 -31
6 18 -2 45 -15 45 -5 0 -9 9 -9 20 0 13 -7 20 -20 20 -11 0 -20 -7 -20 -15z"/>
<path d="M2030 1409 c0 -5 5 -7 10 -4 6 3 10 8 10 11 0 2 -4 4 -10 4 -5 0 -10
-5 -10 -11z"/>
<path d="M1900 1385 c0 -8 7 -15 16 -15 14 0 14 3 4 15 -7 8 -14 15 -16 15 -2
0 -4 -7 -4 -15z"/>
<path d="M1317 1270 c-6 -23 15 -27 32 -6 9 11 8 15 -5 20 -22 8 -21 9 -27
-14z"/>
<path d="M407 1273 c-8 -7 11 -33 24 -33 5 0 9 9 9 20 0 19 -20 27 -33 13z"/>
<path d="M1417 1244 c-13 -13 -7 -24 14 -24 11 0 19 5 17 12 -5 14 -22 21 -31
12z"/>
<path d="M563 1208 c2 -7 13 -13 25 -13 11 0 24 -4 28 -8 12 -11 24 -8 24 7 0
14 -29 26 -63 26 -11 0 -17 -5 -14 -12z"/>
</g>
</svg>
